<svg xmlns="http://www.w3.org/2000/svg" width="1534" height="429" viewBox="0 0 1534 429" fill="none"><path d="M398.662 342.47C412.302 342.47 419.782 349.62 419.782 363.04V400H416.262V388.56C412.742 395.71 405.482 400.33 395.032 400.33C382.162 400.33 374.572 393.84 374.572 384.27C374.572 375.91 379.852 368.65 395.362 368.65H416.152V363.04C416.152 351.71 410.102 345.77 398.552 345.77C390.302 345.77 383.042 348.85 378.202 353.47L376.222 350.83C381.722 345.66 389.972 342.47 398.662 342.47ZM395.252 397.25C405.812 397.25 412.632 392.3 416.152 383.5V371.62H395.362C382.932 371.62 378.202 376.9 378.202 384.05C378.202 392.19 384.582 397.25 395.252 397.25ZM467.423 400.33C451.363 400.33 439.373 388.34 439.373 371.4C439.373 354.46 451.363 342.47 467.423 342.47C483.593 342.47 495.473 354.46 495.473 371.4C495.473 388.34 483.593 400.33 467.423 400.33ZM467.423 397.03C481.393 397.03 491.843 386.58 491.843 371.4C491.843 356.22 481.393 345.88 467.423 345.88C453.453 345.88 443.003 356.22 443.003 371.4C443.003 386.58 453.453 397.03 467.423 397.03ZM624.523 400H620.893L620.783 330.59L587.013 389.33H585.033L551.153 330.81V400H547.523V323H550.603L586.023 384.6L621.333 323H624.413L624.523 400ZM712.419 400L702.079 377.45H655.989L645.649 400H641.579L677.219 323H680.849L716.489 400H712.419ZM657.419 374.26H700.649L679.089 327.29L657.419 374.26ZM753.151 400.44C741.821 400.44 731.041 396.04 725.651 389.77L727.631 387.13C732.581 392.74 742.371 397.14 753.041 397.14C769.211 397.14 776.361 389.77 776.361 380.86C776.361 356.22 727.851 370.85 727.851 342.36C727.851 332.02 735.771 322.56 754.141 322.56C762.611 322.56 771.191 325.31 776.911 329.6L775.261 332.57C769.101 328.06 761.181 325.86 754.251 325.86C738.631 325.86 731.481 333.34 731.481 342.36C731.481 367.11 779.991 352.81 779.991 380.75C779.991 391.2 771.741 400.44 753.151 400.44ZM815.824 400V326.41H787.554V323H847.724V326.41H819.454V400H815.824ZM868.149 396.59H916.439V400H864.409V323H914.899V326.41H868.149V359.19H909.949V362.6H868.149V396.59ZM998.606 400H994.206L975.176 373.49C972.646 373.93 969.786 374.15 966.816 374.15H943.826V400H940.086V323H966.816C985.956 323 997.396 332.46 997.396 348.52C997.396 360.95 990.686 369.42 978.916 372.61L998.606 400ZM943.826 370.74H967.036C984.306 370.74 993.766 362.71 993.766 348.52C993.766 334.44 984.306 326.41 967.036 326.41H943.826V370.74ZM1038.28 323H1061.27V400H1057.64V326.41H1038.28V323ZM1099.41 364.03C1089.62 364.03 1082.8 355.89 1082.8 343.35C1082.8 330.81 1089.62 322.67 1099.41 322.67C1109.2 322.67 1116.02 330.81 1116.02 343.35C1116.02 355.89 1109.2 364.03 1099.41 364.03ZM1093.91 400L1146.49 323H1149.9L1097.32 400H1093.91ZM1099.41 361.28C1107.55 361.28 1113.05 354.46 1113.05 343.35C1113.05 332.24 1107.55 325.42 1099.41 325.42C1091.38 325.42 1085.77 332.24 1085.77 343.35C1085.77 354.46 1091.38 361.28 1099.41 361.28ZM1144.4 400.33C1134.61 400.33 1127.79 392.19 1127.79 379.65C1127.79 367.11 1134.61 358.97 1144.4 358.97C1154.19 358.97 1161.12 367.11 1161.12 379.65C1161.12 392.19 1154.19 400.33 1144.4 400.33ZM1144.4 397.58C1152.43 397.58 1158.04 390.76 1158.04 379.65C1158.04 368.54 1152.43 361.72 1144.4 361.72C1136.37 361.72 1130.87 368.54 1130.87 379.65C1130.87 390.76 1136.37 397.58 1144.4 397.58Z" fill="#986A3F"></path><path d="M119.983 213.1C97.9326 213.1 79.4526 205.33 69.5826 198.19L68.5326 169L70.8426 168.58C79.0326 190.63 94.9926 209.32 124.183 209.32C140.983 209.32 155.473 198.4 155.473 181.39C155.473 160.39 129.643 150.73 112.003 143.59C87.2226 133.72 71.4726 124.9 71.4726 102.64C71.4726 78.07 91.8426 62.53 122.713 62.53C141.823 62.53 155.473 67.78 163.663 72.19L164.503 96.55L162.403 97.18C154.633 78.91 139.933 65.89 115.993 65.89C98.9826 65.89 84.4926 75.76 84.4926 93.61C84.4926 113.35 106.123 121.33 123.973 128.68C147.283 137.92 169.123 147.16 169.123 170.89C169.123 197.14 144.763 213.1 119.983 213.1ZM226.827 213.1C203.727 213.1 177.057 196.3 177.057 161.65C177.057 127.42 202.887 104.53 232.287 104.53C258.747 104.53 274.077 121.75 274.707 141.7H192.597C192.177 144.85 191.967 148 191.967 151.36C191.967 180.13 209.817 199.87 237.117 199.87C253.287 199.87 264.837 192.52 274.497 181.6L276.387 183.49C265.677 198.19 249.297 213.1 226.827 213.1ZM193.227 138.97H257.907C255.807 124.9 244.467 108.31 225.357 108.31C207.507 108.1 196.587 121.33 193.227 138.97ZM258.35 269.38C252.68 269.38 248.06 267.7 248.06 264.34C248.06 260.56 253.1 253.21 260.03 253.21C265.7 253.21 274.52 255.1 283.13 256.36C293.21 248.8 294.89 238.93 294.89 220.24V136.03C294.89 121.33 292.16 119.23 286.49 116.71V114.4L309.38 104.32L311.27 105.79V205.96C311.27 239.98 281.03 269.38 258.35 269.38ZM300.98 91.51C294.47 91.51 289.43 86.26 289.43 79.96C289.43 73.24 294.47 68.2 300.98 68.2C307.7 68.2 312.53 73.24 312.53 79.96C312.53 86.26 307.49 91.51 300.98 91.51ZM407.514 211C403.314 211 401.214 208.69 401.214 204.7V166.9C394.704 192.73 377.064 213.1 356.274 213.1C340.734 213.1 326.874 203.65 326.874 185.59C326.874 163.75 348.924 155.56 373.914 148.63L401.214 141.28C400.164 120.91 389.664 111.46 371.814 111.46C359.214 111.46 347.034 117.34 336.534 130.15L334.644 128.47C346.614 113.56 361.944 104.53 380.214 104.53C405.624 104.53 417.384 118.6 417.384 142.33V184.33C417.384 201.55 419.274 206.38 425.784 208.27V211H407.514ZM342.624 179.71C342.624 193.36 352.074 200.71 364.044 200.71C386.514 200.71 401.004 172.36 401.214 150.31V144.43V144.01L374.754 151.15C359.214 155.56 342.414 162.49 342.624 179.71ZM515.923 211H473.083V208.27C479.383 206.38 481.483 201.55 481.483 184.33V90.67C481.483 73.45 479.383 68.62 473.083 66.73V64H522.223C554.563 64 567.793 74.71 567.793 91.72C567.793 106 558.553 119.02 534.613 123.43C568.843 125.11 583.963 142.12 584.173 162.7C584.593 186.22 566.953 211 515.923 211ZM517.813 207.85C552.043 207.85 565.063 191.26 565.063 167.95C565.063 143.8 551.623 126.16 520.123 126.16H498.703V189.58C498.703 204.7 500.593 207.85 509.623 207.85H517.813ZM518.233 123.01C539.023 123.01 548.683 110.83 548.683 95.5C548.683 78.07 536.293 67.15 514.663 67.15H498.703V123.01H518.233ZM641.987 213.1C618.887 213.1 592.217 196.3 592.217 161.65C592.217 127.42 618.047 104.53 647.447 104.53C673.907 104.53 689.237 121.75 689.867 141.7H607.757C607.337 144.85 607.127 148 607.127 151.36C607.127 180.13 624.977 199.87 652.277 199.87C668.447 199.87 679.997 192.52 689.657 181.6L691.547 183.49C680.837 198.19 664.457 213.1 641.987 213.1ZM608.387 138.97H673.067C670.967 124.9 659.627 108.31 640.517 108.31C622.667 108.1 611.747 121.33 608.387 138.97ZM697.87 211V208.27C704.38 206.38 706.27 201.55 706.27 184.33V136.03C706.27 121.33 703.54 119.23 697.87 116.71V114.4L720.76 104.32L722.65 105.79V123.64C735.25 113.56 751 104.53 766.12 104.53C781.66 104.53 791.53 110.83 795.31 124.27C807.91 114.19 824.08 104.53 839.83 104.53C860.2 104.53 870.7 115.66 870.7 139.39V184.33C870.7 201.55 872.8 206.38 879.1 208.27V211H845.92V208.27C852.43 206.38 854.32 201.55 854.32 184.33V143.17C854.32 122.38 846.76 111.46 830.38 111.46C818.41 111.46 807.49 117.97 795.94 127C796.78 130.57 797.2 134.77 797.2 139.39V184.33C797.2 201.55 799.09 206.38 805.6 208.27V211H772.42V208.27C778.72 206.38 780.82 201.55 780.82 184.33V143.17C780.82 122.38 773.05 111.46 756.88 111.46C744.91 111.46 733.99 117.97 722.65 126.58V184.33C722.65 201.55 724.54 206.38 731.05 208.27V211H697.87ZM888.133 159.97V157.03H942.943V159.97H888.133ZM962.522 88.78C956.222 72.82 951.182 68.62 946.772 66.73V64H979.532V66.73C973.232 68.62 974.702 72.82 981.002 88.78L1021.53 192.73L1061.43 88.99C1066.68 75.13 1065.84 68.2 1058.7 66.73V64H1082.22V66.73C1076.55 68.62 1071.3 72.82 1065.21 88.78L1017.54 212.05H1011.66L962.522 88.78ZM1081.54 211V208.27C1088.05 206.38 1089.94 201.55 1089.94 184.33V136.03C1089.94 121.33 1087.42 119.23 1081.54 116.71V114.4L1104.64 104.32L1106.32 105.79V184.33C1106.32 201.55 1108.42 206.38 1114.72 208.27V211H1081.54ZM1096.87 91.51C1090.36 91.51 1085.32 86.26 1085.32 79.96C1085.32 73.24 1090.36 68.2 1096.87 68.2C1103.59 68.2 1108.42 73.24 1108.42 79.96C1108.42 86.26 1103.38 91.51 1096.87 91.51ZM1122.41 211V208.27C1128.92 206.38 1130.81 201.55 1130.81 184.33V136.03C1130.81 121.33 1128.29 119.23 1122.41 116.71V114.4L1145.51 104.32L1147.19 105.79V123.85C1159.37 113.98 1175.54 104.53 1191.71 104.53C1212.29 104.53 1224.89 116.5 1224.89 141.07V184.33C1224.89 201.55 1226.78 206.38 1233.29 208.27V211H1200.11V208.27C1206.62 206.38 1208.51 201.55 1208.51 184.33V145.27C1208.51 123.43 1199.27 111.46 1180.79 111.46C1169.24 111.46 1157.9 118.39 1147.19 127.21V184.33C1147.19 201.55 1149.29 206.38 1155.59 208.27V211H1122.41ZM1285.99 213.31C1259.95 213.1 1239.58 190.63 1239.58 161.02C1239.58 131.83 1259.53 104.95 1295.65 104.74C1307.2 104.74 1316.86 108.31 1324.21 112.93V73.03C1324.21 58.33 1321.48 56.23 1315.81 53.71V51.4L1338.91 41.32L1340.59 42.79V184.33C1340.59 201.55 1342.48 206.38 1348.99 208.27V211H1330.51C1326.52 211 1324.21 208.69 1324.21 204.7V192.73C1313.92 203.44 1300.9 213.52 1285.99 213.31ZM1255.33 148.42C1255.33 172.99 1266.88 203.02 1295.44 203.02C1306.36 203.02 1316.02 197.35 1324.21 188.95V137.5C1322.32 123.85 1306.78 108.73 1289.14 108.73C1266.88 108.73 1255.33 126.16 1255.33 148.42ZM1410.12 213.1C1383.45 213.1 1355.1 196.51 1355.1 159.97C1355.1 127.21 1381.35 104.53 1410.12 104.53C1436.16 104.53 1464.93 120.49 1464.93 157.87C1464.93 193.78 1434.9 213.1 1410.12 213.1ZM1416.42 208.69C1438.89 208.69 1448.97 190.63 1448.97 170.26C1448.97 143.17 1429.86 107.05 1402.35 108.52C1380.93 109.36 1371.27 127 1371.27 148C1371.27 174.67 1388.49 208.69 1416.42 208.69Z" fill="white"></path></svg>